<?xml version="1.0" standalone="no"?>
<!DOCTYPE svg PUBLIC "-//W3C//DTD SVG 20010904//EN"
 "http://www.w3.org/TR/2001/REC-SVG-20010904/DTD/svg10.dtd">
<svg version="1.0" xmlns="http://www.w3.org/2000/svg"
 width="754.000000pt" height="754.000000pt" viewBox="0 0 754.000000 754.000000"
 preserveAspectRatio="xMidYMid meet">
<metadata>
Created by potrace 1.14, written by Peter Selinger 2001-2017
</metadata>
<g transform="translate(0.000000,754.000000) scale(0.100000,-0.100000)"
fill="#000000" stroke="none">
<path d="M2267 7324 c-1 -1 -38 -5 -82 -8 -142 -11 -153 -13 -335 -51 -63 -14
-153 -36 -200 -50 -47 -14 -92 -27 -100 -29 -46 -11 -147 -48 -167 -61 -13 -9
-23 -23 -23 -33 0 -9 -10 -46 -21 -82 -11 -36 -22 -73 -24 -82 -7 -32 -56
-213 -62 -228 -3 -8 -8 -24 -10 -35 -3 -17 -18 -74 -39 -144 -4 -14 -37 -12
-212 14 -24 4 -36 -15 -46 -70 -3 -14 -7 -28 -10 -33 -3 -5 -7 -20 -10 -34 -2
-15 -23 -100 -46 -190 -23 -90 -43 -170 -45 -178 -2 -8 -8 -35 -15 -60 -7 -25
-13 -52 -15 -60 -2 -8 -29 -116 -60 -239 -31 -123 -59 -231 -60 -240 -2 -9 -4
-17 -5 -18 -3 -4 -5 -11 -15 -58 -13 -56 -12 -55 -15 -57 -2 -3 -6 -20 -14
-58 -3 -14 -9 -38 -13 -55 -4 -16 -6 -33 -5 -37 1 -5 -2 -8 -6 -8 -4 0 -8 -10
-9 -22 -2 -21 -40 -179 -51 -208 -3 -8 -7 -26 -9 -40 -2 -14 -6 -32 -9 -40 -3
-8 -5 -15 -5 -15 0 0 -18 -72 -30 -120 -6 -22 -12 -47 -14 -55 -2 -8 -33 -132
-70 -275 -37 -143 -69 -268 -71 -277 -6 -26 -10 -44 -34 -138 -11 -47 -23 -92
-25 -100 -2 -8 -18 -71 -35 -140 -18 -69 -33 -132 -35 -140 -2 -8 -9 -35 -16
-60 -7 -25 -13 -49 -15 -55 -1 -5 -9 -41 -19 -78 -9 -37 -18 -73 -19 -80 -1
-7 -5 -21 -9 -32 -3 -11 -8 -31 -11 -45 -3 -14 -9 -40 -15 -57 -5 -18 -8 -33
-5 -33 3 0 0 -8 -5 -17 -5 -10 -12 -31 -15 -48 -3 -16 -13 -59 -22 -95 -9 -36
-17 -69 -19 -75 -1 -5 -5 -17 -8 -25 -23 -60 -40 -187 -29 -217 3 -10 48 -26
77 -28 6 0 16 -4 23 -8 6 -5 12 -6 12 -3 0 3 23 -2 52 -10 28 -9 59 -18 67
-20 9 -2 36 -8 61 -15 25 -6 56 -13 70 -15 14 -3 39 -9 55 -14 25 -7 117 -32
135 -36 22 -4 73 -18 115 -29 28 -8 65 -17 84 -20 19 -3 42 -10 52 -16 11 -5
19 -8 19 -5 0 3 23 -2 52 -10 28 -9 61 -18 72 -20 18 -3 72 -15 86 -19 3 -1
19 -5 35 -9 17 -4 37 -10 45 -13 8 -3 24 -7 35 -9 30 -5 60 -12 60 -14 0 -1 7
-3 15 -5 8 -2 80 -19 160 -40 80 -20 154 -38 165 -40 11 -3 137 -34 280 -71
143 -36 269 -68 280 -70 11 -1 56 -12 100 -24 44 -12 96 -25 115 -30 87 -23
81 -6 48 -133 -33 -127 -58 -225 -63 -247 -2 -8 -4 -15 -5 -15 -1 0 -3 -7 -5
-16 -1 -8 -13 -53 -25 -100 -21 -80 -38 -146 -45 -179 -2 -8 -4 -15 -5 -15 -1
0 -3 -7 -5 -15 -1 -8 -28 -114 -60 -235 -31 -121 -58 -227 -60 -235 -2 -8 -11
-44 -20 -80 -9 -36 -19 -73 -21 -83 -2 -10 -6 -27 -9 -37 -3 -10 -8 -27 -10
-37 -2 -10 -25 -97 -50 -193 -68 -259 -70 -243 17 -174 40 33 78 64 84 69 24
21 61 51 104 85 25 19 47 37 50 40 3 3 43 37 90 74 47 38 99 80 117 95 17 14
46 38 65 53 18 14 112 91 208 169 96 79 180 147 185 151 26 20 141 113 145
118 3 3 75 61 160 130 85 68 160 129 166 135 6 5 27 22 45 37 19 14 101 81
182 147 l149 121 101 -83 c56 -45 109 -87 117 -94 8 -7 94 -76 190 -154 96
-78 197 -160 224 -183 27 -22 58 -47 70 -55 12 -8 23 -18 26 -21 3 -3 136
-112 295 -241 160 -128 299 -241 310 -251 11 -9 76 -62 145 -117 69 -56 137
-111 151 -124 27 -23 86 -70 153 -124 22 -18 41 -31 43 -30 2 3 -16 85 -24
107 -3 8 -8 24 -10 35 -8 38 -11 50 -13 50 -1 0 -3 7 -5 15 -8 39 -16 71 -34
140 -11 41 -40 156 -66 255 -25 99 -52 201 -60 228 -8 26 -12 47 -9 47 3 0 0
8 -5 18 -6 11 -12 30 -15 43 -2 13 -9 44 -15 69 -7 25 -13 52 -15 60 -2 8 -9
35 -16 60 -7 25 -14 53 -16 63 -2 10 -6 27 -9 37 -3 10 -8 27 -10 37 -2 10
-27 106 -55 213 -64 246 -59 227 -64 249 -2 10 -9 34 -14 54 -12 44 -6 52 43
62 22 5 45 9 50 11 124 33 175 45 197 49 15 3 38 9 52 15 15 5 26 7 26 5 0 -2
11 0 25 5 14 5 36 12 48 14 12 2 58 14 102 26 44 12 91 23 105 26 14 3 34 8
45 11 22 7 27 9 68 16 15 3 51 13 80 21 29 8 63 17 77 20 14 3 40 9 58 15 17
5 32 8 32 5 0 -3 8 0 18 5 11 6 30 12 43 15 13 2 143 34 289 71 146 37 272 68
280 70 8 2 35 8 60 15 44 12 64 17 107 26 12 2 34 9 48 14 14 5 25 7 25 4 0
-4 6 -2 13 3 6 6 19 10 27 10 8 0 89 20 180 43 91 23 172 44 180 45 8 2 15 4
15 5 0 2 35 10 60 13 34 5 43 15 38 44 -2 16 -4 35 -4 43 0 13 -18 110 -25
135 -2 6 -10 37 -20 70 -9 33 -17 67 -19 75 -2 8 -20 80 -40 160 -20 80 -39
153 -41 163 -2 9 -6 25 -9 35 -2 9 -16 64 -30 122 -14 58 -28 112 -32 120 -3
8 -7 24 -9 35 -2 11 -5 27 -7 35 -15 60 -19 77 -24 90 -4 8 -5 19 -4 24 1 4
-3 14 -9 20 -5 7 -8 15 -5 18 3 3 -1 24 -9 47 -9 23 -15 44 -15 46 1 7 -51
226 -58 245 -3 8 -8 24 -10 34 -2 11 -47 191 -99 400 -53 210 -97 386 -98 391
-1 6 -5 16 -9 23 -5 6 -6 12 -3 12 3 0 1 11 -4 25 -5 14 -12 36 -14 48 -2 12
-14 60 -26 107 -34 133 -41 164 -46 183 -2 9 -7 27 -10 40 -3 12 -10 38 -14
57 -5 19 -14 53 -20 75 -6 22 -13 51 -16 65 -3 14 -14 59 -26 100 -11 41 -21
82 -23 90 -2 8 -26 107 -55 220 -28 113 -53 212 -55 221 -3 15 -14 57 -36 139
-5 19 -15 60 -23 90 -15 60 -12 59 -101 47 -22 -3 -65 -9 -95 -12 l-55 -7 -38
138 c-21 77 -40 146 -42 154 -2 8 -8 30 -14 48 -5 17 -8 32 -5 32 3 0 0 9 -6
21 -6 11 -13 28 -15 37 -10 53 -46 177 -53 183 -6 5 -97 42 -112 45 -3 0 -12
3 -20 7 -26 11 -183 56 -250 72 -76 19 -79 19 -190 39 -47 8 -98 17 -113 20
-57 10 -216 20 -332 20 -179 0 -331 -18 -510 -58 -73 -17 -267 -82 -318 -106
-22 -11 -47 -20 -54 -20 -7 0 -13 -5 -13 -10 0 -6 -3 -9 -7 -8 -27 8 -439
-242 -451 -273 -6 -16 -23 -10 -64 23 -55 43 -107 78 -118 78 -4 0 -10 4 -12
8 -6 15 -174 111 -280 161 -292 137 -570 200 -906 206 -72 1 -133 0 -135 -1z"/>
</g>
</svg>
