<svg xmlns="http://www.w3.org/2000/svg" viewBox="361.83 196.027 337.652 109.671">
  <g id="g-1" featurekey="symbolFeature-0" transform="matrix(1.233149, 0, 0, 1.233149, 583.694763, 189.401062)">
    <path xmlns="http://www.w3.org/2000/svg" d="M48.3,88.1c-8.5,0-16.7-3.7-22.3-10.6c-4.4-5.4-8.3-10-11.6-13.8c-3.7-4.2-5.3-9.7-4.4-15.2c0.9-5.5,4.1-10.3,9-13.1h0  l39-22.7c5.3-3.1,11.7-3.3,17.2-0.8c5.5,2.6,9.4,7.7,10.4,13.7l5,30.4c1.3,7.9-2.6,15.7-9.7,19.4c-5.1,2.7-12,6-20.4,9.9  C56.6,87.2,52.4,88.1,48.3,88.1z M20.9,38.8c-3.8,2.2-6.3,5.9-7,10.2c-0.7,4.3,0.6,8.7,3.5,11.9c3.4,3.8,7.3,8.5,11.7,13.9  c7.2,8.8,19.4,11.6,29.7,6.8c8.3-3.9,15.1-7.2,20.2-9.9c5.6-2.9,8.6-9,7.6-15.2l-5-30.4c-0.8-4.8-3.8-8.7-8.1-10.7  c-4.4-2.1-9.3-1.8-13.5,0.6L20.9,38.8L20.9,38.8z" style="&#10;    fill: #07689f;&#10;"/>
  </g>
  <g id="g-2" featurekey="textGroupContainer" transform="matrix(1, 0, 0, 1, 584.723694, 203.958511)" fill="#2b2024">
    <rect xmlns="http://www.w3.org/2000/svg" y="0" height="1" width="1" opacity="0"/>
    <rect xmlns="http://www.w3.org/2000/svg" x="-10" width="3" height="92"/>
  </g>
  <g id="g-3" featurekey="nameFeature-0" transform="matrix(1.399103, 0, 0, 1.399103, 360.629547, 215.8638)" fill="#2b2024">
    <path d="M16.68 8.359000000000002 l-0.058594 0.019531 c4.375 0 8.125 1.5625 11.25 4.6875 s4.6875 6.875 4.6875 11.25 c0 3.2031 -0.87891 6.1133 -2.6367 8.75 l2.6953 2.6758 l-4.4922 4.4727 l-2.6953 -2.6563 c-2.6758 1.7578 -5.5859 2.6367 -8.75 2.6367 c-4.375 0 -8.125 -1.5625 -11.23 -4.668 s-4.668 -6.8555 -4.668 -11.23 s1.5625 -8.125 4.668 -11.25 s6.8555 -4.6875 11.23 -4.6875 z M16.602 28.75 l4.4922 -4.4922 l4.1406 4.1211 c0.625 -1.2891 0.9375 -2.6563 0.9375 -4.1016 c0 -2.6172 -0.9375 -4.8633 -2.8125 -6.7383 s-4.1211 -2.8125 -6.7383 -2.8125 c-2.6367 0 -4.8828 0.9375 -6.7383 2.8125 s-2.793 4.1211 -2.793 6.7383 c0 2.6367 0.9375 4.8828 2.793 6.7383 s4.1016 2.793 6.7383 2.793 c1.4453 0 2.8125 -0.3125 4.1211 -0.9375 z M53.94496875 8.515999999999998 l6.3477 0 l0 12.656 l0 6.3281 c0 3.4961 -1.2305 6.4844 -3.7109 8.9648 s-5.4688 3.7109 -8.9453 3.7109 c-3.4961 0 -6.4844 -1.2305 -8.9648 -3.7109 s-3.7109 -5.4688 -3.7109 -8.9648 l0 -6.3281 l0 -12.656 l6.3477 0 l0 12.656 l0 5.6641 l0 0.64453 c0 1.7383 0.625 3.2227 1.8555 4.4531 s2.7148 1.8555 4.4531 1.8555 c1.7188 0 3.2031 -0.625 4.4531 -1.8555 s1.875 -2.7148 1.875 -4.4531 l0 -0.64453 l0 -5.6641 l0 -12.656 z M63.3984375 40 l-0.019531 -31.523 l10.234 0 c3.0273 0 6.0156 1.0547 8.1836 3.2227 s3.0469 4.1992 3.0469 7.2266 l0 0.97656 c0 2.3438 -0.66406 4.0625 -1.9922 5.9375 s-2.4414 2.4219 -4.5117 3.2031 l7.1094 10.957 l-7.6953 0 l-8.0469 -12.305 l0 12.305 l-6.3086 0 z M69.6875375 23.633 l4.5117 0.019531 c1.3086 0 1.9727 -0.33203 2.8906 -1.25 s1.25 -1.9727 1.25 -3.2813 c0 -1.2891 -0.33203 -2.1484 -1.25 -3.0859 s-2.5586 -1.2695 -3.8672 -1.2695 l-3.5352 0 l0 8.8672 z M99.08240625 29.59 l5.5664 0 l-2.7734 -6.543 z M96.50390625 35.1562 l-0.078125 0.23438 l-2.0508 4.5313 l-1.0938 0 l-0.25391 0 l-4.1016 0 l-1.3477 0 l14.277 -31.992 l14.316 31.992 l-1.3477 0 l-4.1016 0 l-0.27344 0 l-1.0938 0 l-2.0313 -4.5508 l-0.097656 -0.21484 l-10.723 0 z M118.53515625 7.93 l18.887 17.988 l0 -17.402 l6.3086 0 l0 32.07 l-18.887 -18.008 l0 17.422 l-6.3086 0 l0 -32.07 z"/>
  </g>
</svg>