<svg xmlns="http://www.w3.org/2000/svg" xmlns:xlink="http://www.w3.org/1999/xlink" version="1.1" viewBox="0 0 1000 1000"
   enable-background="new 0 0 1000 1000" xml:space="preserve" aria-hidden="true" focusable="false"
   class="page-sidebar__link__icon">
   <g>
      <g>
         <g>
            <path
               d="M500,990C229.8,990,10,770.2,10,500C10,229.8,229.8,10,500,10s490,219.8,490,490C990,770.2,770.2,990,500,990z M500,69.3C262.5,69.3,69.3,262.5,69.3,500c0,237.5,193.2,430.7,430.7,430.7c237.5,0,430.7-193.2,430.7-430.7C930.7,262.5,737.5,69.3,500,69.3z">
            </path>
            <polygon points="496.3,323.6 611.1,323.6 611.1,676.4 496.3,603.6 388.9,676.4 388.9,323.6 "></polygon>
         </g>
      </g>
      <g></g>
      <g></g>
      <g></g>
      <g></g>
      <g></g>
      <g></g>
      <g></g>
      <g></g>
      <g></g>
      <g></g>
      <g></g>
      <g></g>
      <g></g>
      <g></g>
      <g></g>
   </g>
</svg>