<svg xmlns="http://www.w3.org/2000/svg" viewBox="0 0 32 32" aria-hidden="true" focusable="false"
   style="fill: var(--clr-primaryText)" class="audioPlayer__repeat-btn__icon" width="22px" height="22px">
   <path d="M6,6H26.1719l-3.586-3.5859L24,1l6,6-6,6-1.4141-1.4141L26.1719,8H6v7H4V8A2.0024,2.0024,0,0,1,6,6Z"
      transform="translate(0)"></path>
   <path d="M9.4141,20.4141,5.8281,24H26V17h2v7a2.0024,2.0024,0,0,1-2,2H5.8281L9.414,29.5859,8,31,2,25l6-6Z"
      transform="translate(0)"></path>
   <polygon class="audioPlayer__repeat-btn__one-icon"
      points="17 19 17 11 15 11 15 12 13 12 13 14 15 14 15 19 13 19 13 21 19 21 19 19 17 19"></polygon>
   <rect data-name="<Transparent Rectangle>" width="32" height="32" style="fill: none"></rect>
</svg>